<?xml version="1.0" encoding="iso-8859-1"?>
<!-- Uploaded to: SVG Repo, www.svgrepo.com, Generator: SVG Repo Mixer Tools -->
<svg height="800px" width="800px" version="1.1" id="Layer_1" xmlns="http://www.w3.org/2000/svg" xmlns:xlink="http://www.w3.org/1999/xlink" 
	 viewBox="0 0 512 512" xml:space="preserve">
<path style="fill:#9A8984;" d="M60.442,140.8L12.8,104.841V435.2c0,35.294,28.706,64,64,64h422.4V140.8h-76.8H60.442z"/>
<path style="fill:#BCB0AD;" d="M422.4,12.8H76.8c-35.294,0-64,28.706-64,64c0,16.913,9.242,41.958,47.642,64H422.4V12.8z"/>
<circle style="fill:#FEDEA1;" cx="409.6" cy="320" r="38.4"/>
<g>
	<path style="fill:#573A32;" d="M409.6,371.2c28.279,0,51.2-22.921,51.2-51.2c0-28.279-22.921-51.2-51.2-51.2
		c-28.279,0-51.2,22.921-51.2,51.2C358.4,348.279,381.321,371.2,409.6,371.2z M409.6,294.4c14.114,0,25.6,11.486,25.6,25.6
		c0,14.114-11.486,25.6-25.6,25.6c-14.114,0-25.6-11.486-25.6-25.6C384,305.886,395.486,294.4,409.6,294.4z"/>
	<path style="fill:#573A32;" d="M486.4,128h-51.2V25.6c0-14.14-11.46-25.6-25.6-25.6H76.8C34.449,0,0,34.449,0,76.8v358.4
		C0,477.619,34.381,512,76.8,512h409.6c14.14,0,25.6-11.46,25.6-25.6V153.6C512,139.46,500.54,128,486.4,128z M76.8,25.6h332.8V128
		H76.8c-28.279,0-51.2-22.921-51.2-51.2S48.521,25.6,76.8,25.6z M486.4,486.4H76.8c-28.228,0-51.2-22.972-51.2-51.2V133.623
		C39.219,145.903,57.062,153.6,76.8,153.6h409.6V486.4z"/>
</g>
</svg>