<?xml version="1.0" encoding="iso-8859-1"?>
<!-- Uploaded to: SVG Repo, www.svgrepo.com, Generator: SVG Repo Mixer Tools -->
<svg fill="#000000" height="800px" width="800px" version="1.1" id="Layer_1" xmlns="http://www.w3.org/2000/svg" xmlns:xlink="http://www.w3.org/1999/xlink" 
	 viewBox="0 0 461.134 461.134" xml:space="preserve">
<g id="XMLID_909_">
	<g>
		<path d="M414.441,152.388H92.797l-42.031-38.972c-2.306-2.139-5.336-3.327-8.481-3.327H10.92c-1.512,0-2.925,0.755-3.765,2.013
			c-0.84,1.257-0.997,2.852-0.418,4.249l15.482,37.35H15c-8.284,0-15,6.716-15,15s6.716,15,15,15h19.653l12.341,29.773
			c8.104,19.551,27.185,32.297,48.348,32.297h28.538l-60.103,91.811c-3.787,5.785,0.363,13.463,7.278,13.463h23.411
			c11.519,0,22.858-2.856,33.003-8.312l21.594-11.614h73.511c8.284,0,15-6.716,15-15s-6.716-15-15-15h-17.731l29.726-15.988h60.861
			c8.284,0,15-6.716,15-15s-6.716-15-15-15h-5.081l17.404-9.36h106.689c25.787,0,46.692-20.905,46.692-46.692
			C461.133,173.292,440.228,152.388,414.441,152.388z"/>
	</g>
</g>
</svg>