<?xml version="1.0" encoding="iso-8859-1"?>
<!-- Uploaded to: SVG Repo, www.svgrepo.com, Generator: SVG Repo Mixer Tools -->
<svg fill="#000000" height="800px" width="800px" version="1.1" id="Layer_1" xmlns="http://www.w3.org/2000/svg" xmlns:xlink="http://www.w3.org/1999/xlink" 
	 viewBox="0 0 450.309 450.309" xml:space="preserve">
<g id="XMLID_108_">
	<g>
		<g>
			<path d="M182.338,183.487c0-7.505-4.145-15.761-11.125-15.761c-7.021,0-11.125,8.296-11.125,15.761
				c0,7.435,4.097,15.76,11.125,15.76C178.244,199.247,182.338,190.936,182.338,183.487z"/>
			<path d="M270.643,263.679c-7.012,0-11.125,8.281-11.125,15.76c0,7.498,4.13,15.761,11.125,15.761
				c7.04,0,11.125-8.327,11.125-15.761C281.768,272.017,277.665,263.679,270.643,263.679z"/>
			<path d="M431.291,225.154c11.79-8.74,18.319-23.661,15.598-39.097c-2.722-15.438-13.959-27.225-28.03-31.405
				c8.09-12.246,9.122-28.5,1.285-42.075c-7.837-13.575-22.43-20.807-37.079-19.924c3.414-14.274-1.175-29.901-13.183-39.976
				c-12.008-10.076-28.194-11.882-41.659-6.042c-1.674-14.581-11.331-27.696-26.061-33.057c-14.728-5.36-30.556-1.521-41.212,8.573
				C254.39,9.021,240.83,0,225.155,0C209.48,0,195.92,9.021,189.36,22.15c-10.656-10.094-26.484-13.932-41.212-8.572
				c-14.73,5.361-24.387,18.476-26.061,33.057c-13.464-5.841-29.65-4.035-41.659,6.041C68.421,62.751,63.832,78.378,67.245,92.653
				c-14.65-0.884-29.243,6.349-37.08,19.924c-7.838,13.575-6.805,29.83,1.285,42.076c-14.07,4.18-25.308,15.967-28.03,31.404
				c-2.722,15.437,3.808,30.357,15.598,39.097c-11.79,8.74-18.319,23.661-15.598,39.098c2.722,15.437,13.96,27.225,28.029,31.406
				c-8.09,12.246-9.122,28.499-1.284,42.074c7.735,13.398,22.205,20.826,37.079,19.93c-3.411,14.272,1.178,29.897,13.184,39.971
				c11.836,9.932,27.95,11.984,41.658,6.037c1.673,14.582,11.33,27.699,26.062,33.061c14.61,5.318,30.463,1.619,41.215-8.566
				c6.561,13.126,20.12,22.144,35.792,22.144c15.673,0,29.231-9.018,35.792-22.144c10.678,10.115,26.513,13.917,41.216,8.566
				c14.731-5.362,24.389-18.478,26.061-33.06c13.706,5.946,29.821,3.894,41.658-6.038c12.006-10.074,16.595-25.698,13.184-39.971
				c0.801,0.048,1.601,0.077,2.4,0.077c13.823,0,27.27-7.175,34.678-20.007c7.837-13.575,6.805-29.829-1.284-42.074
				c14.068-4.181,25.307-15.97,28.029-31.406C449.611,248.815,443.081,233.895,431.291,225.154z M225.155,397.519
				c-93.738,0-170-76.262-170-170s76.262-170,170-170s170,76.262,170,170S318.893,397.519,225.155,397.519z"/>
			<path d="M225.155,87.519c-77.196,0-140,62.804-140,140s62.804,140,140,140s140-62.804,140-140
				C365.155,150.322,302.351,87.519,225.155,87.519z M129.958,183.487c0-21.908,19.531-36.62,41.255-36.62
				c21.58,0,41.256,15.175,41.256,36.62c0,21.171-19.333,36.62-41.256,36.62C149.538,220.106,129.958,205.428,129.958,183.487z
				 M172.369,311.508c-0.965,1.185-2.373,1.922-3.897,2.039c-1.524,0.117-3.028-0.397-4.162-1.422l-10.956-9.9
				c-2.201-1.989-2.458-5.353-0.586-7.654l116.719-143.385c0.965-1.185,2.374-1.922,3.897-2.039s3.028,0.397,4.162,1.422l10.955,9.9
				c2.201,1.989,2.458,5.353,0.586,7.654L172.369,311.508z M270.643,316.06c-21.729,0-41.255-14.718-41.255-36.62
				c0-21.741,19.325-36.62,41.255-36.62c21.574,0,41.255,15.17,41.255,36.62C311.898,300.617,292.55,316.06,270.643,316.06z"/>
		</g>
	</g>
</g>
</svg>