<?xml version="1.0" ?><!DOCTYPE svg  PUBLIC '-//W3C//DTD SVG 1.1//EN'  'http://www.w3.org/Graphics/SVG/1.1/DTD/svg11.dtd'><!-- Uploaded to: SVG Repo, www.svgrepo.com, Generator: SVG Repo Mixer Tools -->
<svg width="800px" height="800px" viewBox="0 0 32 32" style="fill-rule:evenodd;clip-rule:evenodd;stroke-linejoin:round;stroke-miterlimit:2;" version="1.1" xml:space="preserve" xmlns="http://www.w3.org/2000/svg" xmlns:serif="http://www.serif.com/" xmlns:xlink="http://www.w3.org/1999/xlink"><g id="Icon"/><path d="M27.335,19.473c-0.166,-0.332 -0.505,-0.542 -0.876,-0.542l-21.113,0c-0.382,0 -0.73,0.223 -0.89,0.57l-2.345,5.089c-0.14,0.303 -0.116,0.657 0.064,0.938c0.18,0.281 0.491,0.451 0.825,0.451l26,0c0.339,0 0.654,-0.175 0.833,-0.464c0.178,-0.289 0.195,-0.649 0.043,-0.953l-2.541,-5.089Zm-1.482,1.417l1.563,3.131c0,-0 -22.886,-0 -22.886,-0c-0,-0 1.443,-3.131 1.443,-3.131l19.88,-0Z" style="fill:#0b0000;"/><path d="M27.194,7.221c0,-0.552 -0.447,-1 -1,-1l-20.481,0c-0.552,0 -1,0.448 -1,1l-0,10.82c-0,0.552 0.448,1 1,1l20.481,0c0.553,0 1,-0.448 1,-1l0,-10.82Zm-2,1l0,8.82c0,0 -18.481,0 -18.481,0c-0,0 -0,-8.82 -0,-8.82l18.481,0Z" style="fill:#0b0000;"/><path d="M30.001,25.218c0,-0.271 -0.219,-0.49 -0.489,-0.49l-27.024,0c-0.27,0 -0.489,0.219 -0.489,0.49l-0,1.782c-0,0.27 0.219,0.489 0.489,0.489l27.024,0c0.27,0 0.489,-0.219 0.489,-0.489l0,-1.782Zm-0.978,0.489l-0,0.804c-0,-0 -26.046,-0 -26.046,-0c0,-0 0,-0.804 0,-0.804c0,-0 26.046,-0 26.046,-0Z"/></svg>