<?xml version="1.0" encoding="iso-8859-1"?>
<!-- Uploaded to: SVG Repo, www.svgrepo.com, Generator: SVG Repo Mixer Tools -->
<svg height="800px" width="800px" version="1.1" id="Layer_1" xmlns="http://www.w3.org/2000/svg" xmlns:xlink="http://www.w3.org/1999/xlink" 
	 viewBox="0 0 512 512" xml:space="preserve">
<path style="fill:#6FB0B6;" d="M460.8,102.4H51.2c-21.171,0-38.4,17.229-38.4,38.4v230.4c0,21.171,17.229,38.4,38.4,38.4h409.6
	c21.171,0,38.4-17.229,38.4-38.4V140.8C499.2,119.629,481.971,102.4,460.8,102.4z"/>
<circle style="fill:#FEDEA1;" cx="179.2" cy="256" r="102.4"/>
<circle style="fill:#FF877F;" cx="332.8" cy="256" r="102.4"/>
<g>
	<path style="fill:#573A32;" d="M460.8,89.6H51.2C22.921,89.6,0,112.521,0,140.8v230.4c0,28.279,22.921,51.2,51.2,51.2h409.6
		c28.279,0,51.2-22.921,51.2-51.2V140.8C512,112.521,489.079,89.6,460.8,89.6z M486.4,371.2c0,14.114-11.486,25.6-25.6,25.6H51.2
		c-14.114,0-25.6-11.486-25.6-25.6V140.8c0-14.114,11.486-25.6,25.6-25.6h409.6c14.114,0,25.6,11.486,25.6,25.6V371.2z"/>
	<path style="fill:#573A32;" d="M332.8,140.8c-29.824,0-56.789,11.682-77.269,30.353C235.17,152.678,208.802,140.8,179.2,140.8
		C115.678,140.8,64,192.478,64,256s51.678,115.2,115.2,115.2c29.602,0,55.97-11.878,76.331-30.353
		c20.48,18.662,47.437,30.353,77.269,30.353c63.522,0,115.2-51.678,115.2-115.2S396.322,140.8,332.8,140.8z M238.592,321.929
		C222.771,336.341,202.249,345.6,179.2,345.6c-49.399,0-89.6-40.201-89.6-89.6s40.201-89.6,89.6-89.6
		c23.049,0,43.571,9.259,59.392,23.671C225.451,208.785,217.6,231.45,217.6,256S225.451,303.215,238.592,321.929z M332.8,345.6
		c-49.399,0-89.6-40.201-89.6-89.6s40.201-89.6,89.6-89.6s89.6,40.201,89.6,89.6C422.4,305.4,382.199,345.6,332.8,345.6z"/>
</g>
</svg>