<?xml version="1.0" encoding="utf-8"?>
<!-- Uploaded to: SVG Repo, www.svgrepo.com, Generator: SVG Repo Mixer Tools -->
<svg width="800px" height="800px" viewBox="0 -143 1310 1310" fill="#000000" class="icon"  version="1.1" xmlns="http://www.w3.org/2000/svg"><path d="M64 672c32.42752 28.16 69.97248 42.24 112.64 42.24s79.78752-14.08 111.36-42.24S337.92 608.42752 343.04 565.76H7.68c5.12 42.66752 23.89248 78.08 56.32 106.24zM896 880.64H407.04c-6.82752 0-12.8 2.56-17.92 7.68s-7.68 11.52-7.68 19.2 2.56 14.08 7.68 19.2 11.09248 7.68 17.92 7.68h488.96c17.06752 0 25.6-8.96 25.6-26.88s-8.53248-26.88-25.6-26.88zM384 947.2h535.04v76.8H384zM1022.72 672c31.57248 28.16 68.69248 42.24 111.36 42.24s80.21248-14.08 112.64-42.24 51.2-63.57248 56.32-106.24H967.68c5.12 42.66752 23.46752 78.08 55.04 106.24zM1292.8 514.56l-135.68-189.44h71.68c10.24 0 18.34752-3.41248 24.32-10.24s8.96-14.50752 8.96-23.04-2.98752-16.21248-8.96-23.04-14.08-10.24-24.32-10.24H839.68c-11.94752-30.72-30.72-57.6-56.32-80.64S727.89248 140.8 693.76 135.68V33.28c0-8.53248-3.41248-16.21248-10.24-23.04s-14.50752-10.24-23.04-10.24h-7.68c-8.53504 0-15.79008 3.41248-21.76 10.24-5.97248 6.82752-8.96 14.50752-8.96 23.04v102.4c-34.13248 5.12-64.42752 19.2-90.88 42.24S485.54752 227.84 473.6 258.56H84.48c-8.53248 0-16.21248 3.41248-23.04 10.24s-10.24 14.50752-10.24 23.04 3.41248 16.21248 10.24 23.04 14.50752 10.24 23.04 10.24h69.12L17.92 514.56H0v33.28h350.72v-33.28h-17.92l-135.68-189.44h317.44c0-6.82752 0.85248-14.50752 2.56-23.04 1.70752-3.41248 2.56-5.97248 2.56-7.68 5.12-25.6 17.06752-47.78752 35.84-66.56s40.96-31.57248 66.56-38.4v360.96h-2.56c-1.70752 64.85248-17.06752 125.44-46.08 181.76s-67.41248 101.54752-115.2 135.68h399.36c-49.49248-34.13248-88.74752-79.36-117.76-135.68s-44.37248-116.90752-46.08-181.76V189.44c23.89504 6.82752 45.23008 19.62752 64 38.4 18.77248 18.77248 30.72 40.96 35.84 66.56 1.70752 1.70752 2.56 4.26752 2.56 7.68 1.70752 8.53248 2.56 16.21248 2.56 23.04h314.88l-135.68 189.44h-17.92v35.84h350.72v-35.84h-17.92z m-1131.52 0H51.2l110.08-151.04v151.04z m138.24 0H189.44v-151.04l110.08 151.04z m821.76 0h-110.08l110.08-151.04v151.04z m28.16 0v-151.04l110.08 151.04h-110.08zM175.36 245.76c9.38752 0 17.06752-2.98752 23.04-8.96s8.96-13.65248 8.96-23.04-2.98752-17.06752-8.96-23.04-13.65248-8.96-23.04-8.96-17.06752 2.98752-23.04 8.96-8.96 13.65248-8.96 23.04 2.98752 17.06752 8.96 23.04 13.65248 8.96 23.04 8.96zM1135.36 245.76c9.38752 0 17.06752-3.41248 23.04-10.24s8.96-14.50752 8.96-23.04-2.98752-16.21248-8.96-23.04-13.65248-10.24-23.04-10.24-17.06752 3.41248-23.04 10.24-8.96 14.50752-8.96 23.04 2.98752 16.21248 8.96 23.04 13.65248 10.24 23.04 10.24z" /></svg>