<?xml version="1.0" encoding="iso-8859-1"?>
<!-- Uploaded to: SVG Repo, www.svgrepo.com, Generator: SVG Repo Mixer Tools -->
<svg fill="#000000" height="800px" width="800px" version="1.1" id="Layer_1" xmlns="http://www.w3.org/2000/svg" xmlns:xlink="http://www.w3.org/1999/xlink" 
	 viewBox="0 0 458.139 458.139" xml:space="preserve">
<g id="XMLID_857_">
	<g>
		<path d="M411.935,154.878H277.132c28.999-9.486,59.28-29.357,70.961-41.037c26.058-26.058,26.061-68.236,0-94.296
			c-26.057-26.059-68.235-26.061-94.296,0c-7.697,7.697-16.763,20.618-24.726,34.819c-7.963-14.201-17.03-27.122-24.727-34.819
			c-26.059-26.058-68.235-26.06-94.296,0c-26.059,26.059-26.061,68.235,0,94.296c11.681,11.681,41.962,31.552,70.963,41.038H46.204
			c-9.582,0-17.35,7.768-17.35,17.35v80.074c0,9.582,7.768,17.35,17.35,17.35h17.08v171.136c0,9.582,7.768,17.35,17.35,17.35
			h105.401c0-2.365,0-300.469,0-303.261h39.999h46.069c0,2.805,0,300.948,0,303.261h105.401c9.582,0,17.35-7.768,17.35-17.35
			V269.653h17.08c9.582,0,17.35-7.768,17.35-17.35v-80.074C429.286,162.646,421.518,154.878,411.935,154.878z M140.104,83.785
			c-9.447-9.447-9.449-24.736,0-34.185c9.447-9.447,24.737-9.448,34.185,0c5.601,5.601,15.858,20.597,23.836,37.357
			c5.907,12.408,9.364,29.475,9.327,30.634C188.39,115.842,152.021,95.703,140.104,83.785z M249.982,117.66
			c0.802-9.43,5.948-22.12,10.033-30.703c7.978-16.76,18.236-31.756,23.836-37.357c9.447-9.447,24.737-9.448,34.185,0
			c9.447,9.448,9.448,24.736-0.001,34.185C305.898,95.925,268.731,116.363,249.982,117.66z"/>
	</g>
</g>
</svg>