<?xml version="1.0" encoding="iso-8859-1"?>
<!-- Uploaded to: SVG Repo, www.svgrepo.com, Generator: SVG Repo Mixer Tools -->
<svg fill="#000000" height="800px" width="800px" version="1.1" id="Layer_1" xmlns="http://www.w3.org/2000/svg" xmlns:xlink="http://www.w3.org/1999/xlink" 
	 viewBox="0 0 460.001 460.001" xml:space="preserve">
<g id="XMLID_873_">
	<g>
		<g>
			<path d="M85.62,412.553c0,5.593,4.534,10.127,10.127,10.127h268.506c5.593,0,10.127-4.534,10.127-10.127v-39.813H85.62V412.553z"
				/>
			<path d="M449.874,37.321c-29.529,0-113.929,0-142.622,0c-5.056,0-9.316,3.718-10.016,8.725
				c-4.665,33.348-35.478,59.119-67.236,59.119s-62.572-25.771-67.236-59.119c-0.699-4.997-4.971-8.725-10.016-8.725
				c-28.435,0-112.17,0-142.621,0C4.534,37.321,0,41.854,0,47.446V156.42c0,5.593,4.534,10.127,10.127,10.127H85.62v177.194h288.76
				V166.547h75.494c5.593,0,10.127-4.534,10.127-10.127V47.448C460,41.855,455.467,37.321,449.874,37.321z"/>
		</g>
	</g>
</g>
</svg>